# xmcd
#
# Track frame offsets:
#	150
#	12858
#	27860
#	41828
#	52713
#	64055
#	76675
#	89478
#	101623
#	113755
#	126080
#	140590
#	152593
#	163755
#	176648
#	188073
#
# Disc length: 2654 seconds
#
# Revision: 0
# Processed by: cddbd v1.4PL0 Copyright (c) Steve Scherf et al.
# Submitted via: dBpowerAMP V4.0
#
DISCID=c60a5c10
DTITLE=Gaye, Marvin - His greatest Hits
DYEAR=1900
DGENRE=Soul
TTITLE0=I´ll be Doggone
TTITLE1=I heard it through the Grapevine
TTITLE2=Your precious Love
TTITLE3=If I couldb build my whole World around You
TTITLE4=Pride and Joy
TTITLE5=You´re a wonderful one
TTITLE6=Try it Baby
TTITLE7=BVaby
TTITLE8=Baby don´t You Do it
TTITLE9=One more Heartache
TTITLE10=Your unchanging Love
TTITLE11=Pretty Little Baby
TTITLE12=You
TTITLE13=Can I get a Witness
TTITLE14=Ain´t no Mountain high enough
TTITLE15=Hitchhike
EXTD=
EXTT0=
EXTT1=
EXTT2=
EXTT3=
EXTT4=
EXTT5=
EXTT6=
EXTT7=
EXTT8=
EXTT9=
EXTT10=
EXTT11=
EXTT12=
EXTT13=
EXTT14=
EXTT15=
PLAYORDER=
